<svg id="Layer_1" data-name="Layer 1" xmlns="http://www.w3.org/2000/svg" width="369.2" height="77.9" viewBox="0 0 369.2 77.9">
        <defs>
            <style>
                .cls-1 {
                    fill: #fff;
                }
            </style>
        </defs>
        <title>Georgia Tech Research Institute</title>
        <rect class="cls-1" x="189.1" y="44.2" width="7.4" height="22.57"></rect>
        <path class="cls-1" d="M199.7,50.4h6.5v2.2h.1c1.2-1.7,4-2.7,6.4-2.7,6.8,0,7.4,4,7.4,6.3V66.8h-6.7v-8c0-2.2.3-4.5-3.4-4.5a3.3,3.3,0,0,0-3.6,3v9.5h-6.7Z"></path>
        <path class="cls-1" d="M228.7,61.4a2.1,2.1,0,0,0,1.1,1.8,5,5,0,0,0,2.4.6c1.3,0,3.2-.5,3.2-1.8s-2.1-1.5-3.3-1.7c-4.2-.9-9.5-1-9.5-5.4s5.3-5,9.4-5,9.2,1,9.4,5.3h-6.2a1.5,1.5,0,0,0-.9-1.4,4.9,4.9,0,0,0-2.1-.4c-1.1,0-2.9.1-2.9,1.2s4.5,1.9,7.6,2.4,5.2,3.1,5.2,4.4c0,4.4-5.2,5.9-9.8,5.9s-9.9-1.3-10-5.9Z"></path>
        <path class="cls-1" d="M257.7,53.9h-4.1v7.5c0,1.3.9,1.6,2.4,1.6h1.7v4H254c-5.7,0-7.2-1.3-7.2-5.8V54h-3.4V50.4h3.4v-5h6.7v5h4.2Z"></path>
        <path class="cls-1" d="M260.7,50.4h6.7V66.8h-6.7Zm6.7-3.5h-6.7V42.8h6.7Z"></path>
        <path class="cls-1" d="M284,53.9h-4.1v7.5c0,1.3.9,1.6,2.4,1.6H284v4h-3.6c-5.8,0-7.2-1.3-7.2-5.8V54h-3.4V50.4h3.3v-5h6.7v5H284Z"></path>
        <path class="cls-1" d="M307.3,66.8h-6.5V64.5h0a8.4,8.4,0,0,1-6.3,2.8c-5.9,0-7.6-2.8-7.6-7V50.4h6.7v9.5c0,2.2,1.2,2.9,3.4,2.9a3.4,3.4,0,0,0,3.6-3.2V50.4h6.7Z"></path>
        <path class="cls-1" d="M324.3,53.9h-4.2v7.5c0,1.3,1,1.6,2.4,1.6h1.8v4h-3.7c-5.7,0-7.2-1.3-7.2-5.8V54H310V50.4h3.4v-5h6.7v5h4.2Z"></path>
        <path class="cls-1" d="M332.8,59.9c.1,2.2,1.7,3.7,4.6,3.7a4.1,4.1,0,0,0,3.8-1.8h6.3c-1.2,3.8-5.6,5.5-10.2,5.5-6.7,0-11.2-3.3-11.2-8.8s5-8.6,11.1-8.6,11,4.4,10.7,10Zm8.3-3a3.8,3.8,0,0,0-4-3.4,4.2,4.2,0,0,0-4.3,3.4Z"></path>
        <path class="cls-1" d="M189.1,14.7h14.4c5,0,9.9,1.8,9.9,6.3a5.9,5.9,0,0,1-4.4,5.7h0c3,.5,3.8,3.2,4.1,5.4s.2,4.2,1.2,5H207c-.6-.7-.8-3-.8-3.6-.2-2.2-.7-4.6-4.1-4.6h-5.6v8.2h-7.4Zm7.4,9.8h6.2c2.2,0,3.3-1,3.3-2.7s-1.6-2.4-3.7-2.4h-5.8Z"></path>
        <path class="cls-1" d="M221.9,30.4c.1,2.2,1.7,3.7,4.5,3.7a4.4,4.4,0,0,0,3.9-1.8h6.3c-1.3,3.8-5.6,5.4-10.2,5.4-6.7,0-11.2-3.2-11.2-8.7s5-8.6,11-8.6,11,4.4,10.7,10Zm8.3-3a3.8,3.8,0,0,0-4-3.4,4.1,4.1,0,0,0-4.3,3.4Z"></path>
        <path class="cls-1" d="M245.6,31.9a2.1,2.1,0,0,0,1.1,1.8,4.2,4.2,0,0,0,2.5.5c1.3,0,3.1-.4,3.1-1.7s-2.1-1.5-3.3-1.7c-4.2-.9-9.5-1-9.5-5.4s5.3-5,9.4-5,9.2,1,9.4,5.3h-6.2a1.3,1.3,0,0,0-.8-1.4,4.1,4.1,0,0,0-2.2-.4c-1.1,0-2.9.1-2.9,1.2s4.5,1.8,7.6,2.4,5.2,3,5.2,4.4c0,4.4-5.2,5.9-9.8,5.9s-9.8-1.3-10-5.9Z"></path>
        <path class="cls-1" d="M268.1,30.4c.2,2.2,1.8,3.7,4.6,3.7a4.3,4.3,0,0,0,3.8-1.8h6.3c-1.2,3.8-5.6,5.4-10.2,5.4-6.6,0-11.2-3.2-11.2-8.7s5-8.6,11.1-8.6,11,4.4,10.7,10Zm8.4-3a3.8,3.8,0,0,0-4-3.4,4.2,4.2,0,0,0-4.4,3.4Z"></path>
        <path class="cls-1" d="M286.1,25.9a5,5,0,0,1,3.2-4.4,16.4,16.4,0,0,1,6.6-1.1c4.8,0,9.5.8,9.5,5.5V33a8.3,8.3,0,0,0,.8,4.2h-6.8a6.6,6.6,0,0,1-.4-1.5,10.6,10.6,0,0,1-6.7,2c-3.9,0-7-1.6-7-5,0-5.3,7.3-4.9,11.9-5.7,1.2-.2,1.8-.5,1.8-1.5s-1.9-1.7-3.2-1.7-3,.7-3.4,2.1Zm8.7,8.5c3.2,0,4.3-1.4,4.1-4.8a27.1,27.1,0,0,1-4.1.9c-1.5.2-2.8.7-2.8,2s1.4,1.9,2.9,1.9Z"></path>
        <path class="cls-1" d="M309.1,20.9h6.6v2.8h0c1-2.1,3.3-3.2,6.2-3.2l1.6.2v4.9l-2.6-.4c-3.3,0-5.1,1.9-5.1,3.9v8.1h-6.7Z"></path>
        <path class="cls-1" d="M339.4,26.9c0-1.4-1.5-2.4-3.2-2.4-3.8,0-4.4,2.5-4.4,4.8s1.2,4.3,4,4.3,3.5-1.1,3.8-2.8h6.5c-.6,4.4-4.8,6.9-10.3,6.9s-10.7-3.3-10.7-8.3,4.2-9,10.8-9,9.6,2.2,10.1,6.5Z"></path>
        <path class="cls-1" d="M348.8,14.7h6.7v8.4h.1c1-1.7,3.8-2.7,6.2-2.7,6.8,0,7.4,4,7.4,6.3V37.3h-6.7V29.4c0-2.3.3-4.6-3.4-4.6a3.4,3.4,0,0,0-3.6,3.1v9.4h-6.7Z"></path>
        <path class="cls-1" d="M30,37.2H24.8l-.5-2.7c-2.2,2.4-5.8,3.2-8.7,3.2C6.1,37.7,0,31.9,0,24.7s6.1-13,15.6-13c6.4,0,13.4,2.8,14.1,9H21.6c-.3-2.1-2.9-3.4-6.2-3.4-5.2,0-7.3,3.7-7.3,7.4s2,7.4,7.3,7.4,6.7-1.5,7.2-3.8H16.9V23.5H30Z"></path>
        <path class="cls-1" d="M39.1,29.6c.1,2.4,1.9,4.1,5,4.1s3.6-.7,4.3-2h6.9c-1.3,4.2-6.2,6-11.3,6-7.3,0-12.4-3.6-12.4-9.7s5.6-9.5,12.3-9.5,12.2,4.9,11.8,11Zm9.2-3.4a4.3,4.3,0,0,0-4.4-3.7,4.6,4.6,0,0,0-4.8,3.7Z"></path>
        <path class="cls-1" d="M68.8,18.5c7,0,12,4.2,12,9.6s-4.9,9.6-12,9.6-11.9-4.1-11.9-9.6S61.8,18.5,68.8,18.5Zm0,14.7c3.5,0,4.6-2.8,4.6-5s-1.1-5.1-4.6-5.1-4.5,2.8-4.5,5.1,1.1,5,4.5,5Z"></path>
        <path class="cls-1" d="M82,19h7.3v3.2h0c1.1-2.3,3.7-3.5,6.9-3.5h1.7v5.4a13.3,13.3,0,0,0-2.8-.3c-3.7,0-5.6,2-5.6,4.3v9H82Z"></path>
        <path class="cls-1" d="M121.6,35c0,3-.7,8.6-11.3,8.6-5.3,0-10.3-1-11.2-5.8h7.5a1.9,1.9,0,0,0,1.2,1.5,6.6,6.6,0,0,0,2.8.4c3.5,0,3.9-2,3.9-4.2V33.8h-.1a7.6,7.6,0,0,1-6,2.6c-6.9,0-10-3.9-10-9s3.5-8.9,10-8.9a7.1,7.1,0,0,1,6,2.8h.1V19.1h7.2ZM110.1,23.1c-3.2,0-4.3,2.3-4.3,4.5a4,4,0,0,0,3.7,4.3h.6c3.1,0,4.5-2,4.5-4.3A4.2,4.2,0,0,0,110.1,23.1Z"></path>
        <path class="cls-1" d="M124.5,19h7.4V37.2h-7.4Zm7.4-2.2h-7.4V12.2h7.4Z"></path>
        <path class="cls-1" d="M134.1,24.6a5.4,5.4,0,0,1,3.6-4.8,17.7,17.7,0,0,1,7.2-1.3c5.4,0,10.6,1,10.6,6.1v7.9a8.6,8.6,0,0,0,.8,4.7h-7.4a5.5,5.5,0,0,1-.5-1.7,12.3,12.3,0,0,1-7.5,2.2c-4.3,0-7.7-1.7-7.7-5.5,0-5.9,8-5.4,13.2-6.3,1.3-.2,2-.5,2-1.7s-2-1.8-3.6-1.8-3.3.7-3.7,2.2Zm9.7,9.4c3.5,0,4.7-1.6,4.5-5.3-1,.5-3,.6-4.6,1s-3.1.9-3.1,2.3,1.4,2,3.1,2Z"></path>
        <path class="cls-1" d="M88.8,47.4H79.4V66.8H71.3V47.4H62V41.8H88.8Z"></path>
        <path class="cls-1" d="M89.6,59.1c.2,2.5,2,4.1,5.1,4.1s3.6-.6,4.3-2h7c-1.4,4.2-6.3,6-11.3,6-7.4,0-12.4-3.6-12.4-9.6S87.8,48,94.5,48s12.2,4.9,11.8,11.1Zm9.3-3.3a4.1,4.1,0,0,0-4.5-3.7,4.6,4.6,0,0,0-4.8,3.7Z"></path>
        <path class="cls-1" d="M123.8,55.2c0-1.5-1.7-2.6-3.6-2.6-4.2,0-4.8,2.8-4.8,5.3s1.3,4.8,4.4,4.8,3.9-1.2,4.2-3.1h7.3c-.7,4.8-5.4,7.6-11.5,7.6s-11.9-3.7-11.9-9.3,4.6-9.9,11.9-9.9c5.7,0,10.7,2.4,11.2,7.2Z"></path>
        <path class="cls-1" d="M132.8,41.7h7.4V51h.1c1.1-1.8,4.2-3,6.9-3,7.6,0,8.2,4.4,8.2,7V66.7h-7.5V57.9c0-2.5.4-5-3.7-5a3.8,3.8,0,0,0-4,3.4V66.7h-7.4Z"></path>
        <path class="cls-1" d="M179.1,43.5l-2.9,11L172.6,0h-1.2l-3.6,54.5-2.9-11h-1.2V73.1h16.6V43.6ZM164.9,71.9V48.1l6.3,23.8Zm7.1-1.7-3.3-12.4h0l3.3-49,3.3,49h0Zm7.1,1.7h-6.3l6.3-23.8Z"></path>
        <path class="cls-1" d="M163.7,77.9h16.5V74.4H163.7Zm1.1-2.4h14.3v1.3H164.8Z"></path>
        <path class="cls-1" d="M354.2,61.4a2.8,2.8,0,0,1,2.8,2.8,2.9,2.9,0,0,1-2.8,2.8,2.8,2.8,0,0,1-2.8-2.8h0a2.7,2.7,0,0,1,2.8-2.8Zm0,5.4a2.7,2.7,0,0,0,0-5.3,2.7,2.7,0,0,0-2.7,2.7h0a2.6,2.6,0,0,0,2.6,2.6Zm-1-4.2h1.1c.7,0,1,.3,1,.9a.7.7,0,0,1-.7.8h-.1l1,1.5h-.2l-1-1.5h-1v1.5h-.1Zm1,1.6c.4,0,1-.1,1-.7s-.5-.7-1-.7h-.9v1.4Z"></path>
    </svg>