<?xml version="1.0" standalone="no"?><!-- Generator: Gravit.io --><svg xmlns="http://www.w3.org/2000/svg" xmlns:xlink="http://www.w3.org/1999/xlink" style="isolation:isolate" viewBox="378.517 327.523 137.946 18.817" width="137.946" height="18.817"><path d=" M 428.931 337.099 L 428.931 336.946 L 428.931 336.946 Q 428.931 334.516 430.007 333.095 L 430.007 333.095 L 430.007 333.095 Q 431.084 331.675 432.93 331.675 L 432.93 331.675 L 432.93 331.675 Q 435.044 331.675 436.144 333.358 L 436.144 333.358 L 436.202 331.866 L 437.273 331.866 L 437.273 342.006 L 437.273 342.006 Q 437.273 344.006 436.154 345.173 L 436.154 345.173 L 436.154 345.173 Q 435.034 346.34 433.121 346.34 L 433.121 346.34 L 433.121 346.34 Q 432.04 346.34 431.06 345.857 L 431.06 345.857 L 431.06 345.857 Q 430.079 345.374 429.515 344.57 L 429.515 344.57 L 430.156 343.881 L 430.156 343.881 Q 431.371 345.374 433.045 345.374 L 433.045 345.374 L 433.045 345.374 Q 434.48 345.374 435.283 344.527 L 435.283 344.527 L 435.283 344.527 Q 436.087 343.68 436.115 342.179 L 436.115 342.179 L 436.115 340.878 L 436.115 340.878 Q 435.015 342.408 432.911 342.408 L 432.911 342.408 L 432.911 342.408 Q 431.112 342.408 430.022 340.973 L 430.022 340.973 L 430.022 340.973 Q 428.931 339.538 428.931 337.099 L 428.931 337.099 L 428.931 337.099 Z  M 430.089 337.147 L 430.089 337.147 L 430.089 337.147 Q 430.089 339.127 430.883 340.27 L 430.883 340.27 L 430.883 340.27 Q 431.677 341.413 433.121 341.413 L 433.121 341.413 L 433.121 341.413 Q 435.235 341.413 436.115 339.519 L 436.115 339.519 L 436.115 334.707 L 436.115 334.707 Q 435.714 333.712 434.958 333.191 L 434.958 333.191 L 434.958 333.191 Q 434.202 332.67 433.14 332.67 L 433.14 332.67 L 433.14 332.67 Q 431.696 332.67 430.892 333.803 L 430.892 333.803 L 430.892 333.803 Q 430.089 334.937 430.089 337.147 Z  M 440.889 329.216 L 442.037 329.216 L 442.037 331.866 L 444.18 331.866 L 444.18 332.804 L 442.037 332.804 L 442.037 339.701 L 442.037 339.701 Q 442.037 340.562 442.348 340.983 L 442.348 340.983 L 442.348 340.983 Q 442.659 341.404 443.386 341.404 L 443.386 341.404 L 443.386 341.404 Q 443.673 341.404 444.314 341.308 L 444.314 341.308 L 444.362 342.246 L 444.362 342.246 Q 443.912 342.408 443.137 342.408 L 443.137 342.408 L 443.137 342.408 Q 441.96 342.408 441.425 341.724 L 441.425 341.724 L 441.425 341.724 Q 440.889 341.04 440.889 339.71 L 440.889 339.71 L 440.889 332.804 L 438.985 332.804 L 438.985 331.866 L 440.889 331.866 L 440.889 329.216 L 440.889 329.216 Z  M 450.111 335.587 L 450.111 336.554 L 445.529 336.554 L 445.529 335.587 L 450.111 335.587 L 450.111 335.587 Z  M 452.445 331.866 L 454.636 339.835 L 454.808 340.724 L 455.038 339.787 L 457.525 331.866 L 458.501 331.866 L 460.959 339.72 L 461.227 340.811 L 461.447 339.806 L 463.571 331.866 L 464.757 331.866 L 461.744 342.217 L 460.768 342.217 L 458.108 334.009 L 457.984 333.445 L 457.86 334.018 L 455.248 342.217 L 454.272 342.217 L 451.268 331.866 L 452.445 331.866 L 452.445 331.866 Z  M 470.937 342.408 L 470.937 342.408 L 470.937 342.408 Q 469.617 342.408 468.55 341.758 L 468.55 341.758 L 468.55 341.758 Q 467.483 341.107 466.89 339.945 L 466.89 339.945 L 466.89 339.945 Q 466.297 338.783 466.297 337.338 L 466.297 337.338 L 466.297 336.927 L 466.297 336.927 Q 466.297 335.434 466.876 334.239 L 466.876 334.239 L 466.876 334.239 Q 467.455 333.043 468.488 332.359 L 468.488 332.359 L 468.488 332.359 Q 469.521 331.675 470.726 331.675 L 470.726 331.675 L 470.726 331.675 Q 472.611 331.675 473.716 332.961 L 473.716 332.961 L 473.716 332.961 Q 474.821 334.248 474.821 336.477 L 474.821 336.477 L 474.821 337.118 L 467.436 337.118 L 467.436 337.338 L 467.436 337.338 Q 467.436 339.098 468.445 340.27 L 468.445 340.27 L 468.445 340.27 Q 469.454 341.442 470.985 341.442 L 470.985 341.442 L 470.985 341.442 Q 471.903 341.442 472.606 341.107 L 472.606 341.107 L 472.606 341.107 Q 473.309 340.772 473.883 340.036 L 473.883 340.036 L 474.601 340.581 L 474.601 340.581 Q 473.338 342.408 470.937 342.408 Z  M 470.726 332.651 L 470.726 332.651 L 470.726 332.651 Q 469.435 332.651 468.55 333.598 L 468.55 333.598 L 468.55 333.598 Q 467.665 334.545 467.474 336.142 L 467.474 336.142 L 473.682 336.142 L 473.682 336.018 L 473.682 336.018 Q 473.635 334.526 472.831 333.588 L 472.831 333.588 L 472.831 333.588 Q 472.027 332.651 470.726 332.651 Z  M 485.382 336.974 L 485.382 337.147 L 485.382 337.147 Q 485.382 339.567 484.311 340.988 L 484.311 340.988 L 484.311 340.988 Q 483.239 342.408 481.431 342.408 L 481.431 342.408 L 481.431 342.408 Q 479.269 342.408 478.159 340.801 L 478.159 340.801 L 478.112 342.217 L 477.04 342.217 L 477.04 327.523 L 478.179 327.523 L 478.179 333.368 L 478.179 333.368 Q 479.269 331.675 481.412 331.675 L 481.412 331.675 L 481.412 331.675 Q 483.249 331.675 484.315 333.076 L 484.315 333.076 L 484.315 333.076 Q 485.382 334.478 485.382 336.974 L 485.382 336.974 L 485.382 336.974 Z  M 484.234 336.946 L 484.234 336.946 L 484.234 336.946 Q 484.234 334.899 483.44 333.784 L 483.44 333.784 L 483.44 333.784 Q 482.646 332.67 481.202 332.67 L 481.202 332.67 L 481.202 332.67 Q 480.101 332.67 479.336 333.21 L 479.336 333.21 L 479.336 333.21 Q 478.571 333.751 478.179 334.793 L 478.179 334.793 L 478.179 339.462 L 478.179 339.462 Q 479.04 341.413 481.221 341.413 L 481.221 341.413 L 481.221 341.413 Q 482.636 341.413 483.435 340.294 L 483.435 340.294 L 483.435 340.294 Q 484.234 339.175 484.234 336.946 Z  M 487.448 337.08 L 487.448 336.946 L 487.448 336.946 Q 487.448 334.535 488.525 333.105 L 488.525 333.105 L 488.525 333.105 Q 489.601 331.675 491.447 331.675 L 491.447 331.675 L 491.447 331.675 Q 493.542 331.675 494.642 333.33 L 494.642 333.33 L 494.642 327.523 L 495.781 327.523 L 495.781 342.217 L 494.709 342.217 L 494.661 340.839 L 494.661 340.839 Q 493.561 342.408 491.428 342.408 L 491.428 342.408 L 491.428 342.408 Q 489.639 342.408 488.544 340.968 L 488.544 340.968 L 488.544 340.968 Q 487.448 339.529 487.448 337.08 L 487.448 337.08 L 487.448 337.08 Z  M 488.606 337.147 L 488.606 337.147 L 488.606 337.147 Q 488.606 339.127 489.4 340.27 L 489.4 340.27 L 489.4 340.27 Q 490.194 341.413 491.638 341.413 L 491.638 341.413 L 491.638 341.413 Q 493.753 341.413 494.642 339.548 L 494.642 339.548 L 494.642 334.688 L 494.642 334.688 Q 493.753 332.67 491.658 332.67 L 491.658 332.67 L 491.658 332.67 Q 490.213 332.67 489.409 333.803 L 489.409 333.803 L 489.409 333.803 Q 488.606 334.937 488.606 337.147 Z  M 502.802 342.408 L 502.802 342.408 L 502.802 342.408 Q 501.482 342.408 500.415 341.758 L 500.415 341.758 L 500.415 341.758 Q 499.349 341.107 498.756 339.945 L 498.756 339.945 L 498.756 339.945 Q 498.163 338.783 498.163 337.338 L 498.163 337.338 L 498.163 336.927 L 498.163 336.927 Q 498.163 335.434 498.741 334.239 L 498.741 334.239 L 498.741 334.239 Q 499.32 333.043 500.353 332.359 L 500.353 332.359 L 500.353 332.359 Q 501.386 331.675 502.592 331.675 L 502.592 331.675 L 502.592 331.675 Q 504.476 331.675 505.581 332.961 L 505.581 332.961 L 505.581 332.961 Q 506.686 334.248 506.686 336.477 L 506.686 336.477 L 506.686 337.118 L 499.301 337.118 L 499.301 337.338 L 499.301 337.338 Q 499.301 339.098 500.31 340.27 L 500.31 340.27 L 500.31 340.27 Q 501.32 341.442 502.85 341.442 L 502.85 341.442 L 502.85 341.442 Q 503.768 341.442 504.472 341.107 L 504.472 341.107 L 504.472 341.107 Q 505.175 340.772 505.749 340.036 L 505.749 340.036 L 506.466 340.581 L 506.466 340.581 Q 505.203 342.408 502.802 342.408 Z  M 502.592 332.651 L 502.592 332.651 L 502.592 332.651 Q 501.3 332.651 500.415 333.598 L 500.415 333.598 L 500.415 333.598 Q 499.531 334.545 499.339 336.142 L 499.339 336.142 L 505.548 336.142 L 505.548 336.018 L 505.548 336.018 Q 505.5 334.526 504.696 333.588 L 504.696 333.588 L 504.696 333.588 Q 503.893 332.651 502.592 332.651 Z  M 508.963 331.866 L 512.139 340.638 L 515.286 331.866 L 516.463 331.866 L 512.598 342.217 L 511.67 342.217 L 507.786 331.866 L 508.963 331.866 L 508.963 331.866 Z  M 386.753 334.344 L 381.3 336.305 L 386.753 338.228 L 386.753 340.906 L 378.517 337.415 L 378.517 335.157 L 386.753 331.665 L 386.753 334.344 L 386.753 334.344 Z  M 388.628 337.08 L 388.628 336.965 L 388.628 336.965 Q 388.628 334.583 389.762 333.129 L 389.762 333.129 L 389.762 333.129 Q 390.895 331.675 392.818 331.675 L 392.818 331.675 L 392.818 331.675 Q 394.521 331.675 395.468 332.842 L 395.468 332.842 L 395.583 331.866 L 398.089 331.866 L 398.089 341.872 L 398.089 341.872 Q 398.089 343.231 397.472 344.235 L 397.472 344.235 L 397.472 344.235 Q 396.855 345.24 395.736 345.766 L 395.736 345.766 L 395.736 345.766 Q 394.617 346.292 393.115 346.292 L 393.115 346.292 L 393.115 346.292 Q 391.976 346.292 390.895 345.838 L 390.895 345.838 L 390.895 345.838 Q 389.814 345.383 389.26 344.666 L 389.26 344.666 L 390.484 342.982 L 390.484 342.982 Q 391.517 344.14 392.99 344.14 L 392.99 344.14 L 392.99 344.14 Q 394.091 344.14 394.703 343.551 L 394.703 343.551 L 394.703 343.551 Q 395.315 342.963 395.315 341.882 L 395.315 341.882 L 395.315 341.327 L 395.315 341.327 Q 394.358 342.408 392.799 342.408 L 392.799 342.408 L 392.799 342.408 Q 390.934 342.408 389.781 340.949 L 389.781 340.949 L 389.781 340.949 Q 388.628 339.49 388.628 337.08 L 388.628 337.08 L 388.628 337.08 Z  M 391.393 337.166 L 391.393 337.166 L 391.393 337.166 Q 391.393 338.572 391.957 339.371 L 391.957 339.371 L 391.957 339.371 Q 392.522 340.17 393.507 340.17 L 393.507 340.17 L 393.507 340.17 Q 394.77 340.17 395.315 339.223 L 395.315 339.223 L 395.315 334.87 L 395.315 334.87 Q 394.76 333.923 393.526 333.923 L 393.526 333.923 L 393.526 333.923 Q 392.531 333.923 391.962 334.736 L 391.962 334.736 L 391.962 334.736 Q 391.393 335.549 391.393 337.166 Z  M 400.758 329.321 L 403.523 329.321 L 403.523 331.866 L 405.293 331.866 L 405.293 333.894 L 403.523 333.894 L 403.523 339.06 L 403.523 339.06 Q 403.523 339.634 403.743 339.883 L 403.743 339.883 L 403.743 339.883 Q 403.963 340.131 404.585 340.131 L 404.585 340.131 L 404.585 340.131 Q 405.044 340.131 405.398 340.064 L 405.398 340.064 L 405.398 342.159 L 405.398 342.159 Q 404.585 342.408 403.724 342.408 L 403.724 342.408 L 403.724 342.408 Q 400.816 342.408 400.758 339.471 L 400.758 339.471 L 400.758 333.894 L 399.247 333.894 L 399.247 331.866 L 400.758 331.866 L 400.758 329.321 L 400.758 329.321 Z  M 412.831 328.288 L 407.703 343.413 L 405.647 343.413 L 410.774 328.288 L 412.831 328.288 L 412.831 328.288 Z  M 414.237 338.247 L 419.795 336.276 L 414.237 334.334 L 414.237 331.675 L 422.57 335.166 L 422.57 337.415 L 414.237 340.916 L 414.237 338.247 L 414.237 338.247 Z " fill-rule="evenodd" fill="rgb(70,70,70)"/></svg>